<svg width="20" height="20" viewBox="0 0 20 20" fill="none" xmlns="http://www.w3.org/2000/svg">
<path d="M19.1667 3.33301H3.05556C2.59531 3.33301 2.22222 3.7061 2.22222 4.16634V4.44412H0.833333C0.37309 4.44412 0 4.81721 0 5.27745V14.7219C0 15.7958 0.870556 16.6663 1.94444 16.6663H18.3333C19.2538 16.6663 20 15.9202 20 14.9997V4.16634C20 3.7061 19.6269 3.33301 19.1667 3.33301ZM1.94444 14.9997C1.87077 14.9997 1.80012 14.9704 1.74803 14.9183C1.69593 14.8662 1.66667 14.7956 1.66667 14.7219V6.11079H2.22222V14.7219C2.22222 14.7956 2.19296 14.8662 2.14086 14.9183C2.08877 14.9704 2.01812 14.9997 1.94444 14.9997ZM10.1389 14.4441H4.86111C4.63101 14.4441 4.44444 14.2576 4.44444 14.0275V13.7497C4.44444 13.5196 4.63101 13.333 4.86111 13.333H10.1389C10.369 13.333 10.5556 13.5196 10.5556 13.7497V14.0275C10.5556 14.2576 10.369 14.4441 10.1389 14.4441ZM17.3611 14.4441H12.0833C11.8532 14.4441 11.6667 14.2576 11.6667 14.0275V13.7497C11.6667 13.5196 11.8532 13.333 12.0833 13.333H17.3611C17.5912 13.333 17.7778 13.5196 17.7778 13.7497V14.0275C17.7778 14.2576 17.5912 14.4441 17.3611 14.4441ZM10.1389 11.1108H4.86111C4.63101 11.1108 4.44444 10.9242 4.44444 10.6941V10.4163C4.44444 10.1862 4.63101 9.99967 4.86111 9.99967H10.1389C10.369 9.99967 10.5556 10.1862 10.5556 10.4163V10.6941C10.5556 10.9242 10.369 11.1108 10.1389 11.1108ZM17.3611 11.1108H12.0833C11.8532 11.1108 11.6667 10.9242 11.6667 10.6941V10.4163C11.6667 10.1862 11.8532 9.99967 12.0833 9.99967H17.3611C17.5912 9.99967 17.7778 10.1862 17.7778 10.4163V10.6941C17.7778 10.9242 17.5912 11.1108 17.3611 11.1108ZM17.3611 7.77745H4.86111C4.63101 7.77745 4.44444 7.59089 4.44444 7.36079V5.9719C4.44444 5.74179 4.63101 5.55523 4.86111 5.55523H17.3611C17.5912 5.55523 17.7778 5.74179 17.7778 5.9719V7.36079C17.7778 7.59089 17.5912 7.77745 17.3611 7.77745Z" fill="#AFB0C0"/>
</svg>
